HIERARCHY
ROOT Pelvis
{
	OFFSET -0.217368 -24.078917 2.858379
	CHANNELS 6 Xposition Yposition Zposition Zrotation Yrotation Xrotation 
	JOINT Left_hip
	{
		OFFSET 5.858135 -8.228005 -1.766408
		CHANNELS 3 Zrotation Yrotation Xrotation
		JOINT Left_knee
		{
			OFFSET 4.345143 -38.646942 0.803700
			CHANNELS 3 Zrotation Yrotation Xrotation
			JOINT Left_ankle
			{
				OFFSET -1.479033 -42.687447 -3.742800
				CHANNELS 3 Zrotation Yrotation Xrotation
				JOINT Left_foot
				{
					OFFSET 4.105436 -6.028605 12.204244
					CHANNELS 3 Zrotation Yrotation Xrotation
					End Site
					{
						OFFSET 0.000000 0.000000 0.000000
					}
				}
			}
		}
	}
	JOINT Right_hip
	{
		OFFSET -6.030973 -9.051328 -1.354253
		CHANNELS 3 Zrotation Yrotation Xrotation
		JOINT Right_knee
		{
			OFFSET -4.325663 -38.368790 -0.484304
			CHANNELS 3 Zrotation Yrotation Xrotation
			JOINT Right_ankle
			{
				OFFSET 1.905555 -42.004566 -3.456167
				CHANNELS 3 Zrotation Yrotation Xrotation
				JOINT Right_foot
				{
					OFFSET -3.483987 -6.210554 13.032330
					CHANNELS 3 Zrotation Yrotation Xrotation
					End Site
					{
						OFFSET 0.000000 0.000000 0.000000
					}
				}
			}
		}
	}
	JOINT Spine1
	{
		OFFSET 0.443945 12.440353 -3.838522
		CHANNELS 3 Zrotation Yrotation Xrotation
		JOINT Spine2
		{
			OFFSET 0.448844 13.795640 2.682033
			CHANNELS 3 Zrotation Yrotation Xrotation
			JOINT Spine3
			{
				OFFSET -0.226460 5.603239 0.285504
				CHANNELS 3 Zrotation Yrotation Xrotation
				JOINT Neck
				{
					OFFSET -1.339018 21.163553 -3.346758
					CHANNELS 3 Zrotation Yrotation Xrotation
					JOINT Head
					{
						OFFSET 1.011321 8.893734 5.040987
						CHANNELS 3 Zrotation Yrotation Xrotation
						End Site
						{
							OFFSET 0.000000 0.000000 0.000000
						}
					}
				}
				JOINT Left_collar
				{
					OFFSET 7.170247 11.399971 -1.889817
					CHANNELS 3 Zrotation Yrotation Xrotation
					JOINT Left_shoulder
					{
						OFFSET 12.292140 4.520507 -1.904600
						CHANNELS 3 Zrotation Yrotation Xrotation
						JOINT Left_elbow
						{
							OFFSET 25.533188 -1.564902 -2.294648
							CHANNELS 3 Zrotation Yrotation Xrotation
							JOINT Left_wrist
							{
								OFFSET 26.570929 1.269810 -0.737473
								CHANNELS 3 Zrotation Yrotation Xrotation
								JOINT Left_palm
								{
									OFFSET 8.669054 -1.063602 -1.559429
									CHANNELS 3 Zrotation Yrotation Xrotation
									End Site
									{
										OFFSET 0.000000 0.000000 0.000000
									}
								}
							}
						}
					}
				}
				JOINT Right_collar
				{
					OFFSET -8.295364 11.247234 -2.370738
					CHANNELS 3 Zrotation Yrotation Xrotation
					JOINT Right_shoulder
					{
						OFFSET -11.322830 4.685326 -0.847207
						CHANNELS 3 Zrotation Yrotation Xrotation
						JOINT Right_elbow
						{
							OFFSET -26.012751 -1.436928 -3.126872
							CHANNELS 3 Zrotation Yrotation Xrotation
							JOINT Right_wrist
							{
								OFFSET -26.910841 0.679372 -0.602677
								CHANNELS 3 Zrotation Yrotation Xrotation
								JOINT Right_palm
								{
									OFFSET -8.875370 -0.865157 -1.010708
									CHANNELS 3 Zrotation Yrotation Xrotation
									End Site
									{
										OFFSET 0.000000 0.000000 0.000000
									}
								}
							}
						}
					}
				}
			}
		}
	}
}
MOTION
Frames: 16
Frame Time: 0.016667
-0.050643 72.317802 -2.350409 -1.453324 -0.244337 6.984611 2.529286 -0.823720 -11.441798 -0.026289 -0.201525 5.983015 0.311257 4.074817 8.646819 0.000000 0.000000 0.000000 0.681826 1.259311 -12.002085 -0.921218 0.371144 5.682358 1.063807 -2.399662 10.546306 0.000000 0.000000 0.000000 3.570732 0.229671 -3.596533 0.896878 -0.189493 -6.515927 -2.664860 3.677421 2.646301 1.071356 -1.237833 3.997179 0.000000 0.000000 0.000000 -1.861284 -13.601416 4.697963 -21.748431 -65.411554 8.667306 97.551249 -35.952716 -37.518164 0.000000 0.000000 0.000000 0.000000 0.000000 0.000000 4.643076 11.291174 3.955612 28.582308 58.380517 10.823319 -116.306897 44.160693 -60.392191 0.000000 0.000000 0.000000 0.000000 0.000000 0.000000 
-0.045748 72.324341 -2.304598 -1.404251 -0.668343 6.922090 2.460605 -0.781117 -10.749154 -0.175628 -0.156513 5.357939 0.358984 4.169184 8.677930 0.000000 0.000000 0.000000 0.859240 1.231872 -11.613074 -1.279263 0.408084 5.310054 1.133498 -2.240194 10.495520 0.000000 0.000000 0.000000 3.767748 0.292479 -4.385997 0.964037 -0.196464 -7.079705 -2.913562 4.080661 3.548996 1.322161 -1.472972 4.208770 0.000000 0.000000 0.000000 -1.513416 -13.811838 4.761869 -21.757257 -64.395838 8.445394 98.136130 -35.892271 -37.812435 0.000000 0.000000 0.000000 0.000000 0.000000 0.000000 4.171432 11.167574 3.899677 29.224755 58.201395 11.100853 -116.328574 44.345586 -60.658741 0.000000 0.000000 0.000000 0.000000 0.000000 0.000000 
-0.038987 72.297516 -2.287307 -1.347836 -0.567999 7.100408 2.532456 -0.763027 -10.574427 -0.527786 -0.081458 4.700698 0.215317 3.945023 8.759789 0.000000 0.000000 0.000000 0.755735 1.227988 -11.653410 -1.249790 0.393970 5.123165 1.314405 -1.862353 10.456971 0.000000 0.000000 0.000000 3.795939 0.350547 -5.159172 0.883265 -0.155689 -7.301786 -2.829651 3.704266 3.583067 1.194415 -1.438033 4.922855 0.000000 0.000000 0.000000 -1.431290 -13.819261 4.761452 -22.149254 -63.474239 8.460173 99.194670 -36.073687 -38.664286 0.000000 0.000000 0.000000 0.000000 0.000000 0.000000 3.744182 11.202977 3.907023 30.604534 58.600043 11.930670 -117.808874 44.540662 -62.340134 0.000000 0.000000 0.000000 0.000000 0.000000 0.000000 
-0.032363 72.296944 -2.277114 -1.344396 -0.317035 7.008454 2.580357 -0.717223 -9.968163 -0.717104 -0.033419 4.012137 0.093068 3.762718 8.852611 0.000000 0.000000 0.000000 0.519467 1.167155 -11.254287 -1.347630 0.400129 4.956392 1.257280 -1.988907 10.486679 0.000000 0.000000 0.000000 3.670666 0.394845 -5.830318 0.921984 -0.179421 -7.078420 -2.789974 3.461674 3.497344 1.184698 -1.481059 5.415530 0.000000 0.000000 0.000000 -2.023373 -13.743901 4.756179 -22.570798 -62.304496 8.427422 101.756138 -37.167801 -41.525034 0.000000 0.000000 0.000000 0.000000 0.000000 0.000000 4.429804 11.474651 4.024415 30.155136 57.880399 11.480255 -119.293135 44.995335 -64.421004 0.000000 0.000000 0.000000 0.000000 0.000000 0.000000 
-0.036093 72.258972 -2.255960 -1.367821 -0.048276 6.749851 2.543439 -0.686633 -9.487395 -0.687145 -0.040495 4.108093 0.123019 3.706380 8.539157 0.000000 0.000000 0.000000 0.397161 1.124717 -10.936084 -1.387080 0.413058 5.089645 1.136756 -2.107841 10.182574 0.000000 0.000000 0.000000 3.654845 0.406252 -5.996321 0.931997 -0.201349 -6.587716 -2.783835 3.002605 3.078591 1.040586 -1.406743 5.912587 0.000000 0.000000 0.000000 -2.463980 -13.643894 4.735372 -24.121139 -61.060170 8.961695 103.963820 -38.104450 -44.102442 0.000000 0.000000 0.000000 0.000000 0.000000 0.000000 4.687384 11.672567 4.107566 29.776328 57.468187 11.165796 -120.985316 44.993418 -66.139077 0.000000 0.000000 0.000000 0.000000 0.000000 0.000000 
-0.054123 72.262993 -2.222120 -1.419034 0.356503 6.512051 2.442290 -0.662690 -9.044021 -0.558693 -0.060339 4.144034 -0.285229 2.954077 8.453701 0.000000 0.000000 0.000000 0.274704 1.074267 -10.533314 -1.398619 0.417021 5.131706 1.303044 -1.839947 10.346452 0.000000 0.000000 0.000000 3.411345 0.422357 -6.377299 0.972872 -0.234796 -6.137433 -2.342491 2.444894 2.657613 0.481936 -0.937376 6.134760 0.000000 0.000000 0.000000 -3.192311 -13.151176 4.574974 -26.536395 -60.263968 10.017005 106.293360 -40.189260 -48.232774 0.000000 0.000000 0.000000 0.000000 0.000000 0.000000 5.152185 11.693668 4.125389 30.246000 57.313274 11.355514 -122.089414 46.186467 -68.939048 0.000000 0.000000 0.000000 0.000000 0.000000 0.000000 
-0.080241 72.263870 -2.181108 -1.336515 1.002915 6.432505 2.202262 -0.670895 -8.933647 -0.417632 -0.086190 4.312282 -0.292643 2.838284 8.174081 0.000000 0.000000 0.000000 -0.034333 1.024227 -10.248857 -1.317702 0.404336 5.124186 1.036830 -2.268181 10.080500 0.000000 0.000000 0.000000 3.109063 0.429709 -6.697630 1.071108 -0.275405 -6.144272 -2.150516 1.903731 2.411582 -0.048993 -0.449215 5.896826 0.000000 0.000000 0.000000 -4.106206 -12.702829 4.429847 -28.683531 -59.074086 10.776539 107.869046 -42.201292 -51.848293 0.000000 0.000000 0.000000 0.000000 0.000000 0.000000 5.865835 11.670406 4.130445 30.415012 56.319957 11.141333 -122.949949 47.060076 -71.065434 0.000000 0.000000 0.000000 0.000000 0.000000 0.000000 
-0.119653 72.253899 -2.149819 -1.368878 1.494691 5.725634 2.452493 -0.603634 -8.211886 -0.748254 -0.050239 4.779212 -0.284362 2.743852 7.879047 0.000000 0.000000 0.000000 -0.446848 0.928522 -9.544040 -1.016986 0.366903 5.291399 0.951937 -2.478803 10.179884 0.000000 0.000000 0.000000 3.064546 0.420507 -6.594925 0.883143 -0.201403 -6.028387 -1.910922 1.490358 2.750876 -0.429212 -0.062268 5.226135 0.000000 0.000000 0.000000 -4.369715 -12.659412 4.420040 -30.277048 -58.569435 11.423786 109.698378 -42.986149 -54.300528 0.000000 0.000000 0.000000 0.000000 0.000000 0.000000 6.004396 11.680223 4.137278 31.124595 55.960517 11.378404 -123.510985 47.655829 -72.496932 0.000000 0.000000 0.000000 0.000000 0.000000 0.000000 
-0.148766 72.188599 -2.135029 -1.293975 1.555107 5.281255 2.615554 -0.570182 -7.867477 -1.091703 -0.004968 5.061572 -0.150964 2.933043 7.742809 0.000000 0.000000 0.000000 -0.741891 0.908120 -9.518002 -1.039027 0.407693 6.047406 0.904329 -2.512759 10.023368 0.000000 0.000000 0.000000 3.145766 0.422223 -6.560990 0.664507 -0.124469 -5.608024 -1.950503 1.717067 2.726013 -0.005605 -0.454926 5.524477 0.000000 0.000000 0.000000 -4.234317 -12.842025 4.487488 -31.359384 -58.076431 11.804709 110.553306 -43.155308 -55.232366 0.000000 0.000000 0.000000 0.000000 0.000000 0.000000 5.916736 11.345693 3.998595 32.961251 56.104714 12.321042 -123.293451 48.008972 -72.740360 0.000000 0.000000 0.000000 0.000000 0.000000 0.000000 
-0.161173 72.132889 -2.134638 -1.277318 1.702684 4.856042 2.757210 -0.537225 -7.498438 -0.862965 -0.047748 5.336629 -0.327625 2.490187 7.411308 0.000000 0.000000 0.000000 -0.874489 0.884314 -9.347842 -0.970217 0.431046 6.749288 0.926117 -2.351213 9.728655 0.000000 0.000000 0.000000 3.307188 0.413306 -6.318938 0.399371 -0.027608 -5.133392 -1.813693 1.543660 2.430633 -0.070799 -0.410677 5.670735 0.000000 0.000000 0.000000 -4.674432 -13.098266 4.601006 -32.927073 -57.362287 12.336762 111.517308 -44.029047 -57.137417 0.000000 0.000000 0.000000 0.000000 0.000000 0.000000 5.542321 11.613105 4.100672 34.358491 56.034220 12.983504 -123.208940 48.238962 -72.960737 0.000000 0.000000 0.000000 0.000000 0.000000 0.000000 
-0.168257 72.052536 -2.164628 -1.287119 1.999851 4.567950 2.949567 -0.517276 -7.352378 -0.889812 -0.053307 5.703614 -0.367835 2.301636 7.109060 0.000000 0.000000 0.000000 -0.922565 0.867442 -9.195718 -0.875945 0.422566 6.898848 0.874273 -2.377673 9.531524 0.000000 0.000000 0.000000 3.193397 0.394830 -6.128531 0.481993 -0.059237 -5.244798 -1.709901 1.262811 2.664693 -0.263789 -0.171996 4.817215 0.000000 0.000000 0.000000 -5.150079 -12.990557 4.572924 -34.622741 -56.979376 13.028832 112.628540 -45.053940 -59.390984 0.000000 0.000000 0.000000 0.000000 0.000000 0.000000 5.353863 11.620800 4.100089 35.337574 56.235801 13.538486 -123.088571 49.272158 -74.226761 0.000000 0.000000 0.000000 0.000000 0.000000 0.000000 
-0.159992 71.941605 -2.198627 -1.268455 2.370017 4.317045 2.917216 -0.533741 -7.576179 -0.892321 -0.073711 6.483835 -0.530681 1.924938 6.907160 0.000000 0.000000 0.000000 -0.959748 0.862891 -9.169565 -0.713649 0.419827 7.422337 0.935357 -2.165866 9.316835 0.000000 0.000000 0.000000 3.021253 0.365939 -5.815642 0.597595 -0.107094 -5.283290 -1.477950 0.774988 2.751970 -0.685057 0.271032 3.733856 0.000000 0.000000 0.000000 -5.668986 -12.443940 4.367903 -36.420846 -57.106507 13.957729 113.406785 -46.068595 -61.358376 0.000000 0.000000 0.000000 0.000000 0.000000 0.000000 5.057516 11.454655 4.027748 36.629021 56.844985 14.410650 -123.269500 50.624496 -76.239131 0.000000 0.000000 0.000000 0.000000 0.000000 0.000000 
-0.160554 71.849625 -2.228323 -1.256288 2.188768 4.156886 2.948277 -0.538992 -7.681856 -0.953751 -0.077786 7.032672 -0.341516 2.066442 6.378911 0.000000 0.000000 0.000000 -0.801217 0.912620 -9.604760 -0.783499 0.469584 8.216460 1.081465 -1.686699 8.887695 0.000000 0.000000 0.000000 3.080430 0.346587 -5.492609 0.696461 -0.152582 -5.181585 -1.620498 0.936756 2.787998 -0.609744 0.229883 3.436276 0.000000 0.000000 0.000000 -5.332796 -12.649525 4.441868 -36.564379 -57.160298 14.049484 113.700911 -46.039838 -61.596868 0.000000 0.000000 0.000000 0.000000 0.000000 0.000000 4.651398 11.594031 4.075714 37.409769 57.100135 14.905567 -123.617267 50.787619 -76.846718 0.000000 0.000000 0.000000 0.000000 0.000000 0.000000 
-0.174956 71.788200 -2.249553 -1.282487 2.294946 3.432681 2.940692 -0.489828 -6.927813 -0.990314 -0.085340 7.568085 -0.258041 1.908038 5.584598 0.000000 0.000000 0.000000 -0.602717 0.898846 -9.331689 -0.843592 0.507355 8.776964 1.190862 -1.238441 8.373579 0.000000 0.000000 0.000000 3.116810 0.331317 -5.246849 0.648823 -0.129935 -5.251310 -1.495284 0.643623 4.049628 -0.517962 0.120177 3.864118 0.000000 0.000000 0.000000 -4.360748 -13.071715 4.580837 -35.670233 -57.339598 13.677450 112.312563 -44.866098 -58.873837 0.000000 0.000000 0.000000 0.000000 0.000000 0.000000 3.470661 11.754263 4.114634 37.467696 57.862101 15.233814 -122.483929 49.777202 -74.236959 0.000000 0.000000 0.000000 0.000000 0.000000 0.000000 
-0.209846 71.769279 -2.268082 -1.263061 2.653881 3.216576 2.970220 -0.481815 -6.827445 -1.074281 -0.077675 7.854861 -0.387918 1.535086 5.270433 0.000000 0.000000 0.000000 -0.524678 0.892932 -9.221825 -0.748805 0.494866 8.882909 1.267023 -0.966915 8.120442 0.000000 0.000000 0.000000 2.963676 0.337376 -5.424562 0.624346 -0.119640 -5.248053 -1.260120 0.322007 4.565245 -0.678683 0.237428 4.113290 0.000000 0.000000 0.000000 -3.724139 -13.518365 4.733004 -34.390548 -57.734203 13.191002 110.453122 -44.078454 -56.268063 0.000000 0.000000 0.000000 0.000000 0.000000 0.000000 2.860937 12.200130 4.270788 37.099291 57.512302 14.906443 -122.619280 49.432425 -73.924259 0.000000 0.000000 0.000000 0.000000 0.000000 0.000000 
-0.268355 71.759575 -2.286994 -1.215627 2.673377 3.077925 3.153537 -0.461589 -6.648262 -1.170014 -0.060421 7.853105 -0.539088 1.274571 5.335656 0.000000 0.000000 0.000000 -0.307421 0.891489 -9.077921 -0.878819 0.517728 8.856727 1.547633 -0.344543 8.059026 0.000000 0.000000 0.000000 3.019489 0.344476 -5.497472 0.700798 -0.153175 -5.217980 -1.433264 0.661160 4.833078 -0.298042 -0.094043 4.217189 0.000000 0.000000 0.000000 -2.939971 -13.705034 4.775751 -33.098445 -58.162007 12.700371 108.920834 -42.990028 -53.653456 0.000000 0.000000 0.000000 0.000000 0.000000 0.000000 2.194955 12.185050 4.248437 36.735234 57.164576 14.586097 -122.616592 48.705345 -72.942639 0.000000 0.000000 0.000000 0.000000 0.000000 0.000000 
